<svg xmlns="http://www.w3.org/2000/svg" viewBox="0 0 1000 1250" width="1000" height="1250" preserveAspectRatio="xMidYMid slice" role="img"><rect width="1000" height="1250" fill="#EFEDE7"/><circle cx="500" cy="540" r="335" fill="#E3E6DA"/><ellipse cx="500" cy="1105" rx="290" ry="28" fill="#1C1B18" opacity=".055"/><g transform="translate(-60 330) scale(0.56)">
  <path d="M296 258 L504 258 L512 400 L470 800 L404 800 L400 520 L396 800 L330 800 L288 400 Z" fill="#4A6280"/>
  <rect x="292" y="258" width="216" height="44" rx="4" fill="#2d3c4f" opacity=".3"/>
  <path d="M400 302 L400 520" stroke="#2d3c4f" stroke-width="3" opacity=".28"/>
  <path d="M336 352 L336 780" stroke="#2d3c4f" stroke-width="3" opacity=".14"/>
  <path d="M464 352 L464 780" stroke="#2d3c4f" stroke-width="3" opacity=".14"/>
  <path d="M300 316 L346 316 L340 372 L302 356 Z" fill="#2d3c4f" opacity=".2"/>
  <path d="M500 316 L454 316 L460 372 L498 356 Z" fill="#2d3c4f" opacity=".2"/>
  <circle cx="400" cy="282" r="7" fill="#2d3c4f" opacity=".5"/>

  <path d="M306 330 Q400 358 494 330" stroke="#6f93c0" stroke-width="3" fill="none" opacity=".5"/>
  <path d="M312 344 Q400 372 488 344" stroke="#6f93c0" stroke-width="3" fill="none" opacity=".35"/>
  <path d="M348 640 Q360 700 352 762" stroke="#6f93c0" stroke-width="6" fill="none" opacity=".25"/>
  <path d="M452 600 Q444 660 452 730" stroke="#6f93c0" stroke-width="6" fill="none" opacity=".2"/>
</g><g transform="translate(240 350) scale(0.54)">
  <path d="M296 270 L360 238 Q400 276 440 238 L504 270 L600 346 L562 600 L498 584 L498 744 Q400 766 302 744 L302 584 L238 600 L200 346 Z" fill="#DBD2BC"/>
  <path d="M360 238 Q400 294 440 238 Q400 260 360 238 Z" fill="#948e7f" opacity=".5"/>
  <path d="M338 250 Q400 320 462 250 L462 276 Q400 344 338 276 Z" fill="#948e7f" opacity=".3"/>
  <path d="M300 360 Q350 348 400 360 Q450 372 500 360" stroke="#948e7f" stroke-width="3" fill="none" opacity=".22"/><path d="M300 394 Q350 382 400 394 Q450 406 500 394" stroke="#948e7f" stroke-width="3" fill="none" opacity=".22"/><path d="M300 428 Q350 416 400 428 Q450 440 500 428" stroke="#948e7f" stroke-width="3" fill="none" opacity=".22"/><path d="M300 462 Q350 450 400 462 Q450 474 500 462" stroke="#948e7f" stroke-width="3" fill="none" opacity=".22"/><path d="M300 496 Q350 484 400 496 Q450 508 500 496" stroke="#948e7f" stroke-width="3" fill="none" opacity=".22"/><path d="M300 530 Q350 518 400 530 Q450 542 500 530" stroke="#948e7f" stroke-width="3" fill="none" opacity=".22"/><path d="M300 564 Q350 552 400 564 Q450 576 500 564" stroke="#948e7f" stroke-width="3" fill="none" opacity=".22"/><path d="M300 598 Q350 586 400 598 Q450 610 500 598" stroke="#948e7f" stroke-width="3" fill="none" opacity=".22"/><path d="M300 632 Q350 620 400 632 Q450 644 500 632" stroke="#948e7f" stroke-width="3" fill="none" opacity=".22"/><path d="M300 666 Q350 654 400 666 Q450 678 500 666" stroke="#948e7f" stroke-width="3" fill="none" opacity=".22"/><path d="M300 700 Q350 688 400 700 Q450 712 500 700" stroke="#948e7f" stroke-width="3" fill="none" opacity=".22"/>
  <path d="M302 714 L498 714 L498 744 Q400 766 302 744 Z" fill="#948e7f" opacity=".3"/>
</g><g transform="translate(150 90) scale(0.82)">
  <path d="M292 262 L360 232 L400 296 L440 232 L508 262 L612 344 L574 606 L502 588 L502 754 Q400 776 298 754 L298 588 L226 606 L188 344 Z" fill="#8B6A46"/>
  <path d="M360 232 L400 296 L336 300 L318 258 Z" fill="#56412b" opacity=".42"/>
  <path d="M440 232 L400 296 L464 300 L482 258 Z" fill="#56412b" opacity=".42"/>
  <path d="M392 296 L408 296 L408 760 L392 760 Z" fill="#56412b" opacity=".35"/>
  <rect x="306" y="520" width="86" height="96" rx="8" fill="#56412b" opacity=".2"/>
  <rect x="408" y="520" width="86" height="96" rx="8" fill="#56412b" opacity=".2"/>
  <path d="M298 726 L502 726 L502 754 Q400 776 298 754 Z" fill="#56412b" opacity=".3"/>
  <path d="M226 606 L298 588 L298 624 L238 642 Z" fill="#56412b" opacity=".3"/>
  <path d="M574 606 L502 588 L502 624 L562 642 Z" fill="#56412b" opacity=".3"/>
</g></svg>