<svg xmlns="http://www.w3.org/2000/svg" viewBox="0 0 800 1000" width="800" height="1000" preserveAspectRatio="xMidYMid slice" role="img"><rect x="-200" y="-200" width="1400" height="1600" fill="#e3e1d9"/><g transform="rotate(-7 400 500) scale(0.92) translate(34 44)"><ellipse cx="400" cy="812" rx="188" ry="26" fill="#1C1B18" opacity=".07"/>
  <path d="M296 270 L360 238 Q400 276 440 238 L504 270 L600 346 L562 600 L498 584 L498 744 Q400 766 302 744 L302 584 L238 600 L200 346 Z" fill="#DBD2BC"/>
  <path d="M360 238 Q400 294 440 238 Q400 260 360 238 Z" fill="#878274" opacity=".5"/>
  <path d="M338 250 Q400 320 462 250 L462 276 Q400 344 338 276 Z" fill="#878274" opacity=".3"/>
  <path d="M300 360 Q350 348 400 360 Q450 372 500 360" stroke="#878274" stroke-width="3" fill="none" opacity=".22"/><path d="M300 394 Q350 382 400 394 Q450 406 500 394" stroke="#878274" stroke-width="3" fill="none" opacity=".22"/><path d="M300 428 Q350 416 400 428 Q450 440 500 428" stroke="#878274" stroke-width="3" fill="none" opacity=".22"/><path d="M300 462 Q350 450 400 462 Q450 474 500 462" stroke="#878274" stroke-width="3" fill="none" opacity=".22"/><path d="M300 496 Q350 484 400 496 Q450 508 500 496" stroke="#878274" stroke-width="3" fill="none" opacity=".22"/><path d="M300 530 Q350 518 400 530 Q450 542 500 530" stroke="#878274" stroke-width="3" fill="none" opacity=".22"/><path d="M300 564 Q350 552 400 564 Q450 576 500 564" stroke="#878274" stroke-width="3" fill="none" opacity=".22"/><path d="M300 598 Q350 586 400 598 Q450 610 500 598" stroke="#878274" stroke-width="3" fill="none" opacity=".22"/><path d="M300 632 Q350 620 400 632 Q450 644 500 632" stroke="#878274" stroke-width="3" fill="none" opacity=".22"/><path d="M300 666 Q350 654 400 666 Q450 678 500 666" stroke="#878274" stroke-width="3" fill="none" opacity=".22"/><path d="M300 700 Q350 688 400 700 Q450 712 500 700" stroke="#878274" stroke-width="3" fill="none" opacity=".22"/>
  <path d="M302 714 L498 714 L498 744 Q400 766 302 744 Z" fill="#878274" opacity=".3"/>
</g></svg>